# xmcd
#
# Track frame offsets: 
#        182
#        12832
#        28190
#        37662
#        46727
#        75390
#        87297
#        97877
#        107517
#        115377
#        135410
#
# Disc length: 1973 seconds
#
# Revision: 4
# Processed by: cddbd v1.5.2PL0 Copyright (c) Steve Scherf et al.
# Submitted via: ExactAudioCopy v0.99pb5
#
DISCID=7007b30b
DTITLE=Dr K's Blues Band - Rock The Joint!
DYEAR=1992
DGENRE=Blues
TTITLE0=I Can't Lose
TTITLE1=Walking
TTITLE2=Key To The Highway
TTITLE3=Crippled Clarence
TTITLE4=Pet Cream Man
TTITLE5=Messin' With Kid 
TTITLE6=Don't Quit The Man You Love For Me
TTITLE7=Rolty's Banjo Shuffle
TTITLE8=Strobe Lemming's Lament
TTITLE9=Lond Distance Call
TTITLE10=Feel So Bad
EXTD=
EXTT0=
EXTT1=
EXTT2=
EXTT3=
EXTT4=
EXTT5=
EXTT6=
EXTT7=
EXTT8=
EXTT9=
EXTT10=
PLAYORDER=
